Patient4_TMGait_0pt6_02_left_28_GRF.mot
version=1
nRows=65
nColumns=19
inDegrees=no
endheader
time	F1x	F1y	F1z	M1x	M1y	M1z	F2x	F2y	F2z	M2x	M2y	M2z	EC1x	EC1y	EC1z	EC2x	EC2y	EC2z
34.22	18.6267	2.3443	-1.5846	0.27714	5.1116	-6.2094	-32.3712	709.7145	-66.246	272.0949	90.6202	830.3627	-0.0592	0.0182	-0.0073	-0.0462	0.0165	0.9585
34.2323	12.2824	2.593	-1.009	-0.16259	3.3113	-3.012	-26.7984	719.7174	-66.1439	275.2635	88.2907	836.9809	-0.0592	0.0182	-0.0073	-0.0462	0.0165	0.9585
34.2446	6.9858	2.8031	-0.51587	-0.54705	1.7985	-0.28825	-21.7003	730.6531	-65.9288	278.8642	85.9551	844.3059	-0.0592	0.0182	-0.0073	-0.0462	0.0165	0.9585
34.2569	2.9838	2.9896	-0.1424	-0.85581	0.65325	1.8546	-17.4143	741.9467	-65.5893	282.6977	83.7296	851.9557	-0.0592	0.0182	-0.0073	-0.0462	0.0165	0.9585
34.2691	0.25136	3.1573	0.11784	-1.0875	-0.13773	3.4028	-14.0694	752.9882	-65.1427	286.5107	81.6849	859.4488	-0.0592	0.0182	-0.0073	-0.0462	0.0165	0.9585
34.2814	-1.4367	3.3132	0.27533	-1.2489	-0.63407	4.4462	-11.6217	763.0831	-64.5813	290.0026	79.8113	866.1413	-0.0592	0.0182	-0.0073	-0.0462	0.0165	0.9585
34.2937	-2.3272	3.4228	0.35996	-1.3404	-0.91195	5.0505	-9.9264	771.5217	-63.929	292.8611	78.0899	871.3065	-0.0592	0.0182	-0.0073	-0.0462	0.0165	0.9585
34.306	-2.681	3.448	0.38989	-1.3634	-1.0384	5.281	-8.7786	777.6508	-63.1897	294.8016	76.4619	874.2331	-0.0592	0.0182	-0.0073	-0.0462	0.0165	0.9585
34.3183	-2.7217	3.3285	0.39589	-1.3098	-1.0851	5.1603	-7.9599	780.9571	-62.3888	295.6047	74.8778	874.3408	-0.0592	0.0182	-0.0073	-0.0462	0.0165	0.9585
34.3306	-2.5981	2.9844	0.39417	-1.1626	-1.0928	4.6569	-7.2391	781.2096	-61.5473	295.1671	73.2805	871.3334	-0.0592	0.0182	-0.0073	-0.0462	0.0165	0.9585
34.3429	-2.4269	2.324	0.40356	-0.89522	-1.1008	3.723	-6.3858	778.461	-60.7174	293.5068	71.6467	865.1996	-0.0592	0.0182	-0.0073	-0.0462	0.0165	0.9585
34.3551	-2.2464	1.243	0.42514	-0.4767	-1.1146	2.2458	-5.2231	773.0759	-59.944	290.7694	69.9664	856.2718	-0.0592	0.0182	-0.0073	-0.0462	0.0165	0.9585
34.3674	-2.0789	-0.31804	0.4542	0.11543	-1.1289	0.18162	-3.6087	765.6492	-59.293	287.1932	68.2673	845.1352	-0.0592	0.0182	-0.0073	-0.0462	0.0165	0.9585
34.3797	-1.8653	-2.3685	0.47759	0.88207	-1.106	-2.4982	-1.5179	756.8507	-58.7989	283.0548	66.578	832.472	-0.0592	0.0182	-0.0073	-0.0462	0.0165	0.9585
34.392	-1.5611	-4.7699	0.48091	1.7736	-1.008	-5.6137	1.0513	747.3481	-58.4927	278.6314	64.9361	818.9708	-0.0592	0.0182	-0.0073	-0.0462	0.0165	0.9585
34.4043	-1.0434	-7.2104	0.43395	2.6733	-0.75942	-8.7957	4.0423	737.7604	-58.3595	274.1809	63.348	805.2868	-0.0592	0.0182	-0.0073	-0.0462	0.0165	0.9585
34.4166	-0.23463	-9.077	0.30553	3.3549	-0.28763	-11.2704	7.3697	728.5898	-58.381	269.9156	61.8145	791.9446	-0.0592	0.0182	-0.0073	-0.0462	0.0165	0.9585
34.4289	0.98282	-9.4125	0.058969	3.4549	0.4941	-11.8529	10.9359	720.248	-58.5221	266.0049	60.3203	779.389	-0.0592	0.0182	-0.0073	-0.0462	0.0165	0.9585
34.4411	2.6523	-6.8273	-0.32669	2.4473	1.6337	-8.7672	14.6332	712.9538	-58.7752	262.5413	58.8756	767.873	-0.0592	0.0182	-0.0073	-0.0462	0.0165	0.9585
34.4534	4.7689	0.48784	-0.87282	-0.36372	3.1496	0.28153	18.3505	706.7173	-59.12	259.5338	57.4823	757.4291	-0.0592	0.0182	-0.0073	-0.0462	0.0165	0.9585
34.4657	7.1581	14.6634	-1.5667	-5.7942	4.9549	18.0213	21.9842	701.3042	-59.5259	256.8972	56.1322	747.8389	-0.0592	0.0182	-0.0073	-0.0462	0.0165	0.9585
34.478	9.4515	37.8809	-2.3599	-14.6714	6.8336	47.2489	25.456	696.1675	-59.9317	254.4329	54.7833	738.5584	-0.0592	0.0182	-0.0073	-0.0462	0.0165	0.9585
34.4903	10.9652	71.8295	-3.1194	-27.6252	8.348	90.1739	28.6891	690.4206	-60.2284	251.8166	53.3508	728.7104	-0.0592	0.0182	-0.0073	-0.0462	0.0165	0.9585
34.5026	10.6351	116.8535	-3.6328	-44.7615	8.8126	147.3372	31.6385	682.795	-60.2607	248.5886	51.7039	717.0192	-0.0592	0.0182	-0.0073	-0.0462	0.0165	0.9585
34.5149	7.2074	171.0228	-3.6085	-65.3104	7.3873	216.4314	34.2285	671.8321	-59.812	244.2237	49.6696	702.0499	-0.0592	0.0182	-0.0073	-0.0462	0.0165	0.9585
34.5271	0.2831	229.7595	-2.6548	-87.4751	3.4229	291.7632	36.3674	656.1472	-58.6612	238.2266	47.0888	682.4431	-0.0592	0.0182	-0.0073	-0.0462	0.0165	0.9585
34.5394	-8.863	285.6382	-0.18222	-108.3817	-3.2991	363.8564	37.8973	634.8272	-56.6197	230.2655	43.8695	657.3399	-0.0592	0.0182	-0.0073	-0.0462	0.0165	0.9585
34.5517	-18.0516	330.7788	4.1529	-125.0457	-12.2532	422.5281	38.7004	607.5962	-53.6571	220.2391	40.0602	626.5149	-0.0592	0.0182	-0.0073	-0.0462	0.0165	0.9585
34.564	-26.2	362.4505	9.5917	-136.4586	-22.0801	464.1318	38.6886	575.0467	-49.8954	208.3448	35.839	590.6358	-0.0592	0.0182	-0.0073	-0.0462	0.0165	0.9585
34.5763	-33.1747	383.8248	15.1757	-143.8529	-31.5697	492.6532	37.9496	538.3948	-45.6431	194.995	31.4988	550.9604	-0.0592	0.0182	-0.0073	-0.0462	0.0165	0.9585
34.5886	-39.1509	400.0525	19.9935	-149.2494	-39.7136	514.6096	36.6969	499.0239	-41.2273	180.6662	27.2836	508.8947	-0.0592	0.0182	-0.0073	-0.0462	0.0165	0.9585
34.6009	-44.1706	415.5489	23.6601	-154.3687	-46.0572	535.5016	35.2032	458.112	-36.8312	165.7756	23.2691	465.609	-0.0592	0.0182	-0.0073	-0.0462	0.0165	0.9585
34.6131	-48.0341	432.7537	26.0206	-160.1838	-50.3776	558.2507	33.6485	416.5267	-32.4524	150.6448	19.3793	421.9671	-0.0592	0.0182	-0.0073	-0.0462	0.0165	0.9585
34.6254	-50.4831	452.5383	27.4258	-167.0345	-52.9985	583.7547	32.1021	374.8943	-28.0241	135.5143	15.5155	378.5908	-0.0592	0.0182	-0.0073	-0.0462	0.0165	0.9585
34.6377	-51.308	474.8702	28.3699	-174.8843	-54.4624	611.7951	30.5217	333.7087	-23.5202	120.574	11.66	335.9763	-0.0592	0.0182	-0.0073	-0.0462	0.0165	0.9585
34.65	-50.5193	498.9787	29.4802	-183.4033	-55.5335	641.3696	28.7742	293.361	-19.0244	105.9714	7.9273	294.5275	-0.0592	0.0182	-0.0073	-0.0462	0.0165	0.9585
34.6623	-48.4114	523.9096	31.2559	-192.1924	-56.9129	671.2409	26.7423	254.2434	-14.7175	91.8391	4.5214	254.6293	-0.0592	0.0182	-0.0073	-0.0462	0.0165	0.9585
34.6746	-45.4195	549.0543	33.9212	-201.001	-59.0176	700.6525	24.3356	216.7315	-10.819	78.2999	1.6673	216.6338	-0.0592	0.0182	-0.0073	-0.0462	0.0165	0.9585
34.6869	-41.9247	574.4132	37.4246	-209.834	-61.913	729.6455	21.5632	181.2294	-7.5284	65.4884	-0.46071	180.8912	-0.0592	0.0182	-0.0073	-0.0462	0.0165	0.9585
34.6991	-38.2826	600.5063	41.5126	-218.9003	-65.4127	758.8806	18.5185	148.2176	-4.9634	53.5663	-1.7916	147.8144	-0.0592	0.0182	-0.0073	-0.0462	0.0165	0.9585
34.7114	-34.7509	627.8104	45.9023	-228.4024	-69.25	788.9995	15.3255	118.135	-3.1273	42.6921	-2.3746	117.7729	-0.0592	0.0182	-0.0073	-0.0462	0.0165	0.9585
34.7237	-31.5179	656.4913	50.3095	-238.4106	-73.154	820.3002	12.1313	91.3748	-1.9143	33.0073	-2.3676	91.118	-0.0592	0.0182	-0.0073	-0.0462	0.0165	0.9585
34.736	-28.7644	686.1255	54.6466	-248.7667	-77.0663	852.3717	9.0878	68.1523	-1.1628	24.5976	-1.9805	68.0311	-0.0592	0.0182	-0.0073	-0.0462	0.0165	0.9585
34.7483	-26.6351	715.8336	58.8483	-259.1414	-80.9633	884.2517	6.3082	48.5512	-0.6952	17.5022	-1.425	48.579	-0.0592	0.0182	-0.0073	-0.0462	0.0165	0.9585
34.7606	-25.1389	744.5586	62.9216	-269.1399	-84.844	914.7283	3.9117	32.5571	-0.39065	11.7193	-0.85723	32.733	-0.0592	0.0182	-0.0073	-0.0462	0.0165	0.9585
34.7729	-24.2067	771.2234	66.6782	-278.3818	-88.4775	942.5278	1.9789	20.0756	-0.16024	7.2144	-0.39268	20.4012	-0.0592	0.0182	-0.0073	-0.0462	0.0165	0.9585
34.7851	-23.6807	794.7675	69.9666	-286.5011	-91.6269	966.3912	0.59534	10.923	0.01948	3.9175	-0.082717	11.3955	-0.0592	0.0182	-0.0073	-0.0462	0.0165	0.9585
34.7974	-23.3271	814.1439	72.5943	-293.1374	-94.0056	985.0887	-0.26798	4.7823	0.15424	1.7093	0.077704	5.3888	-0.0592	0.0182	-0.0073	-0.0462	0.0165	0.9585
34.8097	-22.9527	828.3281	74.5263	-297.9334	-95.5023	997.4545	-0.73381	1.1132	0.24282	0.39367	0.13733	1.8274	-0.0592	0.0182	-0.0073	-0.0462	0.0165	0.9585
34.822	-22.3849	836.5688	75.726	-300.6258	-96.0307	1002.6391	-0.91497	-0.71401	0.29313	-0.25768	0.13507	0.075743	-0.0592	0.0182	-0.0073	-0.0462	0.0165	0.9585
34.8343	-21.4729	838.5197	76.2516	-301.092	-95.6132	1000.3136	-0.92098	-1.3014	0.31138	-0.46176	0.10519	-0.46413	-0.0592	0.0182	-0.0073	-0.0462	0.0165	0.9585
34.8466	-20.128	834.3252	76.1005	-299.39	-94.2474	990.7046	-0.82772	-1.1411	0.30591	-0.39554	0.066016	-0.2847	-0.0592	0.0182	-0.0073	-0.0462	0.0165	0.9585
34.8589	-18.3809	824.5763	75.3318	-295.7318	-92.029	974.5689	-0.69769	-0.59995	0.28606	-0.19222	0.025286	0.25221	-0.0592	0.0182	-0.0073	-0.0462	0.0165	0.9585
34.8711	-16.2952	810.2033	73.9603	-290.4527	-89.0324	953.0656	-0.56411	0.071953	0.2619	0.05697	-0.0135	0.8964	-0.0592	0.0182	-0.0073	-0.0462	0.0165	0.9585
34.8834	-14.0164	792.4095	72.0658	-283.9849	-85.4171	927.672	-0.45317	0.73351	0.23687	0.30026	-0.045025	1.5202	-0.0592	0.0182	-0.0073	-0.0462	0.0165	0.9585
34.8957	-11.68	772.6027	69.7295	-276.8383	-81.3393	900.0547	-0.36875	1.3123	0.20939	0.51322	-0.06596	2.0623	-0.0592	0.0182	-0.0073	-0.0462	0.0165	0.9585
34.908	-9.3883	752.292	67.076	-269.5567	-76.9726	871.9981	-0.31853	1.7877	0.18202	0.68983	-0.073826	2.5175	-0.0592	0.0182	-0.0073	-0.0462	0.0165	0.9585
34.9203	-7.1853	732.9586	64.1966	-262.6735	-72.4366	845.2008	-0.29797	2.1548	0.15512	0.82952	-0.069812	2.8721	-0.0592	0.0182	-0.0073	-0.0462	0.0165	0.9585
34.9326	-5.1404	715.8846	61.2013	-256.644	-67.8678	821.1276	-0.30226	2.4368	0.13108	0.93797	-0.05515	3.1506	-0.0592	0.0182	-0.0073	-0.0462	0.0165	0.9585
34.9449	-3.2519	702.0539	58.2066	-251.8108	-63.395	800.859	-0.32424	2.6333	0.11432	1.0133	-0.035353	3.3518	-0.0592	0.0182	-0.0073	-0.0462	0.0165	0.9585
34.9571	-1.5542	692.0672	55.371	-248.3719	-59.1926	785.0371	-0.36856	2.7482	0.11087	1.0522	-0.014997	3.4799	-0.0592	0.0182	-0.0073	-0.0462	0.0165	0.9585
34.9694	-0.024048	686.1141	52.837	-246.379	-55.4036	773.7947	-0.42801	2.7521	0.11811	1.042	0.0072085	3.483	-0.0592	0.0182	-0.0073	-0.0462	0.0165	0.9585
34.9817	1.4099	684.0779	50.706	-245.7751	-52.1075	766.9337	-0.51626	2.5748	0.13361	0.95898	0.033936	3.2657	-0.0592	0.0182	-0.0073	-0.0462	0.0165	0.9585
34.994	2.9156	685.6061	49.0099	-246.4247	-49.2796	763.976	-0.61807	2.1191	0.14747	0.77119	0.070124	2.7007	-0.0592	0.0182	-0.0073	-0.0462	0.0165	0.9585
35.0063	4.6391	690.179	47.7292	-248.1323	-46.837	764.2723	-0.72487	1.2757	0.16092	0.44184	0.11079	1.6483	-0.0592	0.0182	-0.0073	-0.0462	0.0165	0.9585
